<?xml version="1.0" encoding="iso-8859-1"?>
<!-- Generator: Adobe Illustrator 21.0.1, SVG Export Plug-In . SVG Version: 6.00 Build 0)  -->
<svg version="1.1" id="Capa_1" xmlns="http://www.w3.org/2000/svg" xmlns:xlink="http://www.w3.org/1999/xlink" x="0px" y="0px"
	 viewBox="117 305 466 223" style="enable-background:new 117 305 466 223;" xml:space="preserve">
<circle style="fill:#292929;" cx="230.686" cy="420.353" r="70.02"/>
<path style="fill:#FFFFFF;" d="M225.823,402.111l23.254-14.663v46.623c0,0-0.687,20.849-20.619,20.849
	c-21.23,0-21.765-21.078-21.765-21.078v-10.081h9.699h4.429l-3.513,9.088h8.019l-2.673,13.212l16.419-19.398h-9.164l5.804-14.586
	h-10.081L225.823,402.111z"/>
<g>
	<path d="M346.591,382.238h6.218v20.894c0,1.507-0.256,2.86-0.767,4.063c-0.512,1.202-1.22,2.222-2.125,3.058
		s-1.976,1.476-3.213,1.917c-1.236,0.442-2.573,0.664-4.011,0.664c-1.479,0-2.836-0.188-4.073-0.561
		c-1.236-0.373-2.304-0.942-3.202-1.71c-0.898-0.767-1.6-1.733-2.104-2.901c-0.505-1.168-0.757-2.553-0.757-4.156h6.26
		c0,0.815,0.09,1.5,0.27,2.052c0.18,0.554,0.438,0.999,0.777,1.337c0.339,0.339,0.746,0.581,1.223,0.726
		c0.477,0.146,1.013,0.218,1.606,0.218c1.188,0,2.135-0.407,2.84-1.223s1.058-1.976,1.058-3.482V382.238z"/>
	<path d="M369.392,401.909h-11.67v-4.83h11.67V401.909z"/>
	<path d="M397.312,387.275h-9.244v25.143h-6.219v-25.143h-9.12v-5.037h24.583V387.275z"/>
	<path d="M412.028,401.37h-4.954v11.048h-6.219v-30.18h11.214c1.741,0,3.303,0.197,4.685,0.591c1.382,0.394,2.55,0.974,3.503,1.741
		c0.954,0.767,1.686,1.717,2.197,2.85c0.511,1.133,0.767,2.446,0.767,3.938c0,1.106-0.124,2.097-0.373,2.975
		c-0.248,0.878-0.607,1.658-1.077,2.342c-0.471,0.685-1.037,1.282-1.7,1.793c-0.663,0.512-1.409,0.954-2.238,1.327l6.529,12.333
		v0.29h-6.675L412.028,401.37z M407.074,396.333h5.016c0.815,0,1.53-0.106,2.146-0.321c0.615-0.214,1.126-0.519,1.534-0.912
		c0.407-0.394,0.715-0.863,0.922-1.409c0.208-0.546,0.312-1.157,0.312-1.834c0-1.423-0.404-2.542-1.213-3.358
		s-2.049-1.223-3.721-1.223h-4.995V396.333z"/>
	<path d="M444.986,406.199h-10.903l-2.073,6.219h-6.611l11.234-30.18h5.762l11.297,30.18h-6.612L444.986,406.199z M435.762,401.163
		h7.545l-3.793-11.297L435.762,401.163z"/>
	<path d="M456.51,412.418v-30.18h9.286c2.031,0,3.894,0.349,5.586,1.047c1.693,0.698,3.144,1.679,4.354,2.943
		c1.209,1.264,2.152,2.781,2.829,4.549c0.677,1.769,1.016,3.731,1.016,5.887v1.368c0,2.155-0.335,4.114-1.005,5.876
		c-0.671,1.762-1.617,3.275-2.84,4.539c-1.223,1.265-2.685,2.242-4.384,2.934c-1.7,0.69-3.572,1.036-5.617,1.036H456.51z
		 M462.729,387.275v20.148h3.006c2.459,0,4.332-0.812,5.617-2.436s1.928-3.941,1.928-6.954v-1.41c0-3.067-0.636-5.392-1.907-6.975
		c-1.271-1.582-3.13-2.374-5.576-2.374H462.729z"/>
	<path d="M490.711,412.418h-6.218v-30.18h6.218V412.418z"/>
	<path d="M521.016,412.418h-6.218l-12.105-19.857v19.857h-6.219v-30.18h6.219l12.126,19.898v-19.898h6.197V412.418z"/>
	<path d="M550.325,408.604c-0.359,0.428-0.85,0.888-1.472,1.378s-1.402,0.946-2.343,1.368c-0.939,0.422-2.049,0.774-3.326,1.057
		c-1.278,0.283-2.747,0.426-4.405,0.426c-1.948,0-3.728-0.321-5.337-0.964c-1.61-0.643-2.988-1.586-4.136-2.83
		c-1.146-1.243-2.034-2.771-2.663-4.581c-0.629-1.81-0.943-3.883-0.943-6.218v-1.783c0-2.334,0.301-4.411,0.901-6.228
		c0.602-1.817,1.451-3.348,2.55-4.591s2.429-2.19,3.99-2.84s3.296-0.974,5.203-0.974c1.962,0,3.658,0.246,5.088,0.736
		c1.431,0.491,2.626,1.178,3.586,2.063c0.961,0.884,1.711,1.941,2.249,3.171c0.539,1.23,0.892,2.577,1.058,4.042h-6.053
		c-0.124-0.76-0.318-1.447-0.58-2.062c-0.263-0.615-0.622-1.14-1.078-1.576c-0.456-0.435-1.02-0.77-1.689-1.005
		c-0.67-0.234-1.468-0.352-2.394-0.352c-2.129,0-3.745,0.805-4.851,2.415c-1.105,1.61-1.658,3.998-1.658,7.162v1.824
		c0,3.164,0.601,5.555,1.804,7.172c1.202,1.616,2.964,2.425,5.285,2.425c0.746,0,1.396-0.048,1.948-0.145s1.026-0.218,1.42-0.363
		c0.394-0.145,0.722-0.304,0.984-0.477s0.478-0.342,0.643-0.508v-5.203h-5.658v-4.58h11.877V408.604z"/>
	<path d="M345.223,458.073l8.622-24.895h4.354l-11.193,30.18h-3.523l-11.173-30.18h4.332L345.223,458.073z"/>
	<path d="M366.511,463.358h-3.98v-30.18h3.98V463.358z"/>
	<path d="M390.845,449.408h-13.08v10.696h15.194v3.254h-19.174v-30.18h18.966v3.274h-14.986v9.701h13.08V449.408z"/>
	<path d="M404.421,453.845l0.58,3.979l0.85-3.586l5.97-21.06h3.358l5.824,21.06l0.829,3.648l0.643-4.063l4.685-20.645h4.001
		l-7.317,30.18h-3.627l-6.219-21.992l-0.477-2.301l-0.477,2.301l-6.446,21.992h-3.628l-7.296-30.18h3.979L404.421,453.845z"/>
	<path d="M451.66,455.73c0-0.705-0.107-1.326-0.321-1.865c-0.215-0.539-0.595-1.033-1.14-1.482c-0.547-0.448-1.282-0.87-2.208-1.265
		c-0.926-0.394-2.101-0.798-3.523-1.212c-1.492-0.429-2.844-0.915-4.053-1.462c-1.209-0.545-2.238-1.174-3.088-1.886
		c-0.851-0.712-1.503-1.523-1.959-2.436s-0.685-1.955-0.685-3.13s0.245-2.263,0.736-3.265c0.49-1.002,1.185-1.872,2.083-2.612
		c0.898-0.738,1.976-1.315,3.233-1.73c1.258-0.414,2.66-0.622,4.208-0.622c1.699,0,3.213,0.256,4.539,0.768
		c1.327,0.511,2.442,1.188,3.348,2.031s1.593,1.817,2.063,2.923s0.705,2.245,0.705,3.42h-4.001c0-0.843-0.135-1.624-0.404-2.343
		c-0.27-0.718-0.681-1.34-1.233-1.865s-1.243-0.933-2.072-1.223s-1.811-0.436-2.943-0.436c-1.064,0-1.99,0.124-2.777,0.373
		c-0.788,0.249-1.438,0.591-1.948,1.026c-0.512,0.435-0.892,0.95-1.141,1.544c-0.249,0.595-0.373,1.243-0.373,1.948
		c0,0.636,0.135,1.216,0.404,1.741s0.688,1.009,1.254,1.451s1.296,0.85,2.187,1.223c0.892,0.373,1.959,0.732,3.203,1.078
		c1.713,0.483,3.191,1.02,4.436,1.606c1.243,0.587,2.27,1.254,3.078,2s1.409,1.583,1.804,2.508c0.394,0.927,0.59,1.977,0.59,3.151
		c0,1.229-0.248,2.342-0.746,3.337c-0.497,0.995-1.205,1.845-2.124,2.55c-0.919,0.704-2.024,1.247-3.316,1.627
		c-1.293,0.38-2.733,0.57-4.322,0.57c-0.926,0-1.852-0.087-2.777-0.26s-1.813-0.432-2.663-0.777
		c-0.851-0.345-1.638-0.773-2.363-1.285c-0.726-0.511-1.357-1.105-1.896-1.782s-0.961-1.438-1.265-2.28s-0.456-1.769-0.456-2.777
		h4.001c0,1.036,0.203,1.925,0.611,2.663c0.407,0.74,0.953,1.352,1.637,1.835c0.685,0.483,1.472,0.839,2.363,1.067
		c0.892,0.228,1.827,0.342,2.809,0.342c2.101,0,3.711-0.428,4.83-1.285C451.101,458.377,451.66,457.209,451.66,455.73z"/>
</g>
</svg>
