<?xml version="1.0" encoding="iso-8859-1"?>
<!-- Generator: Adobe Illustrator 21.0.1, SVG Export Plug-In . SVG Version: 6.00 Build 0)  -->
<svg version="1.1" id="Capa_1" xmlns="http://www.w3.org/2000/svg" xmlns:xlink="http://www.w3.org/1999/xlink" x="0px" y="0px"
	 viewBox="117 305 466 193.667" style="enable-background:new 117 305 466 193.667;" xml:space="preserve">
<path style="fill:#61DAFB;" d="M232.617,362.063l42.26-26.647v84.728c0,0-1.249,37.888-37.472,37.888
	c-38.582,0-39.553-38.304-39.553-38.304v-18.319h17.626h8.049l-6.384,16.515h14.572l-4.857,24.01l29.839-35.251h-16.654
	l10.548-26.508H232.27L232.617,362.063z"/>
<g>
	<path style="fill:#FFFFFF;" d="M334.154,365.432h5.916v19.879c0,1.434-0.243,2.722-0.729,3.865
		c-0.487,1.144-1.161,2.114-2.022,2.909c-0.861,0.795-1.88,1.404-3.057,1.824c-1.176,0.421-2.448,0.632-3.816,0.632
		c-1.407,0-2.698-0.178-3.876-0.533c-1.176-0.355-2.192-0.897-3.047-1.627c-0.855-0.729-1.522-1.649-2.001-2.761
		c-0.48-1.111-0.72-2.429-0.72-3.955h5.956c0,0.776,0.085,1.427,0.256,1.952c0.171,0.527,0.417,0.951,0.74,1.272
		c0.322,0.322,0.71,0.553,1.163,0.69c0.453,0.138,0.964,0.207,1.528,0.207c1.131,0,2.031-0.387,2.702-1.163
		c0.671-0.776,1.006-1.88,1.006-3.313V365.432z"/>
	<path style="fill:#FFFFFF;" d="M355.848,384.148h-11.104v-4.596h11.104V384.148z"/>
	<path style="fill:#FFFFFF;" d="M382.413,370.224h-8.796v23.923H367.7v-23.923h-8.677v-4.792h23.39V370.224z"/>
	<path style="fill:#FFFFFF;" d="M396.415,383.636h-4.714v10.512h-5.917v-28.715h10.67c1.657,0,3.142,0.187,4.457,0.562
		c1.315,0.374,2.426,0.927,3.333,1.656c0.908,0.73,1.604,1.634,2.091,2.712c0.486,1.078,0.729,2.328,0.729,3.747
		c0,1.052-0.118,1.995-0.355,2.83c-0.236,0.835-0.578,1.578-1.025,2.228c-0.448,0.651-0.987,1.22-1.618,1.706
		c-0.631,0.487-1.341,0.908-2.13,1.263l6.212,11.734v0.276h-6.351L396.415,383.636z M391.702,378.843h4.772
		c0.776,0,1.456-0.101,2.041-0.306c0.585-0.203,1.071-0.493,1.46-0.868c0.387-0.374,0.68-0.821,0.877-1.341
		c0.198-0.519,0.296-1.101,0.296-1.745c0-1.354-0.385-2.419-1.154-3.195s-1.949-1.164-3.54-1.164h-4.753V378.843z"/>
	<path style="fill:#FFFFFF;" d="M427.774,388.23H417.4l-1.973,5.917h-6.29l10.689-28.715h5.482l10.749,28.715h-6.291L427.774,388.23
		z M418.997,383.439h7.179l-3.609-10.749L418.997,383.439z"/>
	<path style="fill:#FFFFFF;" d="M438.738,394.147v-28.715h8.835c1.933,0,3.705,0.332,5.315,0.996
		c1.611,0.664,2.991,1.597,4.142,2.801c1.15,1.203,2.048,2.646,2.692,4.329c0.644,1.683,0.966,3.55,0.966,5.601v1.302
		c0,2.051-0.319,3.915-0.956,5.591c-0.638,1.676-1.539,3.116-2.702,4.319c-1.163,1.203-2.554,2.133-4.171,2.791
		c-1.618,0.657-3.399,0.986-5.345,0.986H438.738z M444.655,370.224v19.17h2.86c2.34,0,4.122-0.772,5.345-2.317
		c1.223-1.545,1.834-3.75,1.834-6.617v-1.342c0-2.919-0.605-5.13-1.815-6.636c-1.21-1.505-2.978-2.258-5.306-2.258H444.655z"/>
	<path style="fill:#FFFFFF;" d="M471.279,394.147h-5.916v-28.715h5.916V394.147z"/>
	<path style="fill:#FFFFFF;" d="M500.113,394.147h-5.916l-11.518-18.894v18.894h-5.917v-28.715h5.917l11.537,18.933v-18.933h5.896
		V394.147z"/>
	<path style="fill:#FFFFFF;" d="M528,390.519c-0.342,0.407-0.808,0.845-1.4,1.311c-0.592,0.466-1.334,0.9-2.229,1.302
		c-0.894,0.401-1.949,0.737-3.165,1.005c-1.216,0.269-2.614,0.405-4.191,0.405c-1.854,0-3.547-0.306-5.078-0.917
		c-1.532-0.611-2.843-1.509-3.935-2.693c-1.091-1.183-1.935-2.636-2.534-4.359c-0.598-1.722-0.898-3.694-0.898-5.916v-1.697
		c0-2.221,0.286-4.197,0.858-5.926c0.572-1.729,1.381-3.185,2.426-4.368s2.311-2.084,3.797-2.702
		c1.486-0.618,3.136-0.927,4.951-0.927c1.867,0,3.481,0.234,4.841,0.7c1.361,0.467,2.499,1.121,3.412,1.962
		c0.914,0.841,1.628,1.847,2.14,3.017c0.513,1.17,0.848,2.452,1.006,3.845h-5.759c-0.118-0.723-0.303-1.377-0.552-1.962
		c-0.25-0.585-0.592-1.085-1.026-1.499c-0.434-0.414-0.97-0.733-1.607-0.957c-0.637-0.223-1.397-0.335-2.277-0.335
		c-2.026,0-3.563,0.766-4.615,2.297c-1.052,1.532-1.578,3.804-1.578,6.814v1.736c0,3.01,0.571,5.285,1.716,6.824
		c1.144,1.538,2.82,2.307,5.029,2.307c0.71,0,1.328-0.046,1.854-0.138c0.526-0.092,0.977-0.207,1.351-0.346
		c0.374-0.138,0.687-0.289,0.937-0.453s0.454-0.325,0.611-0.483v-4.951h-5.384v-4.358H528V390.519z"/>
	<path style="fill:#FFFFFF;" d="M332.852,437.587l8.204-23.686h4.142l-10.65,28.715h-3.352L320.565,413.9h4.122L332.852,437.587z"/>
	<path style="fill:#FFFFFF;" d="M353.107,442.615h-3.787V413.9h3.787V442.615z"/>
	<path style="fill:#FFFFFF;" d="M376.26,429.342h-12.445v10.177h14.457v3.096h-18.243V413.9h18.045v3.115h-14.259v9.23h12.445
		V429.342z"/>
	<path style="fill:#FFFFFF;" d="M389.177,433.563l0.552,3.786l0.808-3.412l5.68-20.037h3.195l5.542,20.037l0.789,3.471l0.611-3.866
		l4.457-19.643h3.807l-6.962,28.715h-3.451l-5.917-20.925l-0.453-2.189l-0.453,2.189l-6.133,20.925h-3.452l-6.942-28.715h3.786
		L389.177,433.563z"/>
	<path style="fill:#FFFFFF;" d="M434.124,435.358c0-0.671-0.102-1.262-0.306-1.775c-0.204-0.513-0.566-0.983-1.084-1.41
		c-0.52-0.427-1.22-0.828-2.101-1.203c-0.881-0.374-1.999-0.759-3.352-1.153c-1.42-0.408-2.706-0.871-3.856-1.391
		c-1.15-0.518-2.13-1.117-2.938-1.794c-0.809-0.677-1.43-1.449-1.864-2.317c-0.434-0.868-0.651-1.86-0.651-2.978
		c0-1.118,0.233-2.153,0.701-3.106c0.466-0.953,1.127-1.781,1.982-2.486c0.855-0.702,1.88-1.252,3.076-1.646
		c1.197-0.394,2.531-0.592,4.004-0.592c1.617,0,3.057,0.243,4.319,0.73c1.263,0.486,2.324,1.131,3.185,1.933
		c0.861,0.802,1.515,1.729,1.962,2.781c0.447,1.052,0.671,2.136,0.671,3.254h-3.807c0-0.802-0.128-1.545-0.385-2.229
		c-0.256-0.683-0.648-1.275-1.174-1.775c-0.526-0.5-1.183-0.887-1.972-1.163c-0.789-0.276-1.723-0.414-2.801-0.414
		c-1.013,0-1.894,0.118-2.643,0.355c-0.75,0.237-1.368,0.562-1.854,0.977c-0.487,0.413-0.848,0.904-1.085,1.469
		c-0.237,0.566-0.355,1.183-0.355,1.854c0,0.605,0.128,1.157,0.385,1.657c0.256,0.5,0.654,0.96,1.193,1.381
		c0.539,0.421,1.233,0.808,2.08,1.163c0.848,0.355,1.864,0.697,3.048,1.026c1.63,0.46,3.037,0.97,4.22,1.529
		c1.183,0.558,2.159,1.193,2.929,1.903c0.769,0.71,1.341,1.506,1.716,2.386c0.374,0.882,0.561,1.881,0.561,2.998
		c0,1.17-0.236,2.228-0.71,3.175c-0.473,0.947-1.147,1.755-2.021,2.426c-0.874,0.67-1.926,1.187-3.155,1.548
		c-1.23,0.361-2.601,0.543-4.112,0.543c-0.881,0-1.762-0.083-2.643-0.247c-0.881-0.164-1.725-0.411-2.534-0.74
		c-0.809-0.328-1.558-0.736-2.249-1.223c-0.69-0.486-1.292-1.052-1.804-1.696s-0.914-1.368-1.203-2.17
		c-0.289-0.802-0.434-1.683-0.434-2.643h3.807c0,0.986,0.193,1.831,0.582,2.534c0.387,0.704,0.907,1.286,1.557,1.746
		c0.651,0.46,1.4,0.798,2.249,1.016c0.848,0.217,1.738,0.325,2.672,0.325c1.999,0,3.531-0.407,4.596-1.223
		C433.591,437.876,434.124,436.764,434.124,435.358z"/>
</g>
</svg>
