<?xml version="1.0" encoding="iso-8859-1"?>
<!-- Generator: Adobe Illustrator 21.0.1, SVG Export Plug-In . SVG Version: 6.00 Build 0)  -->
<svg version="1.1" id="Layer_1" xmlns="http://www.w3.org/2000/svg" xmlns:xlink="http://www.w3.org/1999/xlink" x="0px" y="0px"
	 viewBox="0 0 1474 2492" style="enable-background:new 0 0 1474 2492;" xml:space="preserve">
<g>
	<g style="opacity:0.3;">
		<g>
			<path d="M1303.634,616.451l131.968,258.789l0.755,1.483l-216.882,105.428L1303.634,616.451z M1304.765,625.682l-80.698,350.653
				l207.965-101.086L1304.765,625.682z"/>
		</g>
		<g>
			<line x1="1432.073" y1="879.096" x2="1477.397" y2="605.573"/>
			<line x1="1479.756" y1="610.751" x2="1436.313" y2="872.877"/>
		</g>
		<g>
			<line x1="1513.577" y1="336.528" x2="1316.947" y2="100.315"/>
			<line x1="1323.161" y1="102.782" x2="1513.322" y2="331.227"/>
		</g>
		<g>
			<path d="M1515.807,327.942l-35.658,280.424l-0.166,1.313l-179.115,13.25L1515.807,327.942z M1511.099,339.815l-203.564,279.388
				l169.64-12.554L1511.099,339.815z"/>
		</g>
		<g>
			<path d="M1301.686,619.632l178.794-13.237l-45.517,274.613L1301.686,619.632z M1306.721,622.501l126.69,248.464l43.27-261.054
				L1306.721,622.501z"/>
		</g>
		<g>
			<path d="M557.909,674.227l157.319,10.012L512.027,867.69L557.909,674.227z M560.368,677.618l-42.903,180.848l189.956-171.494
				L560.368,677.618z"/>
		</g>
		<g>
			<path d="M804.181,282.776l104.556-159.611l45.74,249.393L804.181,282.776z M808.692,281.725l141.39,84.464l-43.034-234.629
				L808.692,281.725z"/>
		</g>
		<g>
			<path d="M1188.574,295.701l-0.857-2.447l328.644,39.348L1303.71,624.453L1188.574,295.701z M1192.413,297.065l112.284,320.618
				l205.852-282.526L1192.413,297.065z"/>
		</g>
		<g>
			<path d="M1080.748,630.291l0.321-1.108l228.483-9.967l-283.978,202.65L1080.748,630.291z M1083.469,632.311l-52.308,181.625
				l267.687-191.021L1083.469,632.311z"/>
		</g>
		<g>
			<path d="M332.233,861.433l26.077-202.412l159.758,205.731L332.233,861.433z M335.834,858.269l175.588,3.132l-150.94-194.389
				L335.834,858.269z"/>
		</g>
		<g>
			<path d="M1187.28,296.448l132.632-197.561l197.347,237.073L1187.28,296.448z M1192.854,293.865l316.784,37.935l-189.445-227.596
				L1192.854,293.865z"/>
		</g>
		<g>
			<path d="M1025.748,817.804l280.946-200.485l-83.966,364.814L1025.748,817.804z M1030.988,817.997l189.818,158.351l80.904-351.534
				L1030.988,817.997z"/>
		</g>
		<g>
			<path d="M1189.992,290.169l116.426,332.421l-226.372,9.867L1189.992,290.169z M1190.13,300.151l-105.651,328.89l217.506-9.498
				L1190.13,300.151z"/>
		</g>
		<g>
			<path d="M905.698,124.187l288.283,171.433l-242.932,75.826L905.698,124.187z M910.09,130.534l43.421,236.767l232.634-72.611
				L910.09,130.534z"/>
		</g>
		<g>
			<path d="M905.802,127.986l106.754-214.013l181.171,385.232L905.802,127.986z M909.982,126.738l276.421,164.371L1012.475-78.732
				L909.982,126.738z"/>
		</g>
		<g>
			<path d="M1008.853-86.449l312.003,186.602l1.46,0.881l-132.498,197.338L1008.853-86.449z M1016.193-78.314l174.115,370.25
				l127.473-189.877L1016.193-78.314z"/>
		</g>
		<g>
			<path d="M767.93,940.475l263.146-125.651l-74.714,221.536L767.93,940.475z M775.194,940.564l179.346,91.263l71.109-210.843
				L775.194,940.564z"/>
		</g>
		<g>
			<path d="M1027.611,815.185l197.748,164.959l-272.307,56.091L1027.611,815.185z M1029.124,820.624l-71.274,211.337l260.33-53.621
				L1029.124,820.624z"/>
		</g>
		<g>
			<path d="M775.916,33.678l134.166,93.253L805.369,286.79L775.916,33.678z M779.892,40.343l27.612,237.363l98.198-149.912
				L779.892,40.343z"/>
		</g>
		<g>
			<path d="M950.01,368.394l242.514-75.688l-109.935,342.248L950.01,368.394z M954.54,370.353l127.41,256.186l105.661-328.926
				L954.54,370.353z"/>
		</g>
		<g>
			<path d="M511.558,863.803l200.685-181.188l61.502,260.245L511.558,863.803z M517.937,862.356l251.441,75.824l-58.981-249.591
				L517.937,862.356z"/>
		</g>
		<g>
			<path d="M952.56,366.37l132.121,265.654l-377.024,55.752L952.56,366.37z M951.993,372.377L714.982,683.424l364.873-53.946
				L951.993,372.377z"/>
		</g>
		<g>
			<path d="M709.055,682.914l323.254,134.89L772.232,941.976l-1.757,0.845L709.055,682.914z M713.588,688.289l59.066,249.93
				l251.776-120.222L713.588,688.289z"/>
		</g>
		<g>
			<path d="M705.352,684.858l376.686-55.711l2.44-0.361l-55.087,191.284L705.352,684.858z M717.282,686.35l310.06,129.381
				l52.704-183.028L717.282,686.35z"/>
		</g>
		<g>
			<path d="M556.309,677.363L699.954,454.76l13.05,232.572L556.309,677.363z M561.964,674.477l147.673,9.407l-12.301-219.191
				L561.964,674.477z"/>
		</g>
		<g>
			<path d="M1015.304-81.996L775.478,40.041 M780.321,33.977l229.417-116.743"/>
		</g>
		<g>
			<path d="M774.78,36.794l241.321-122.804L908.486,129.73L774.78,36.794z M781.025,37.227l126.268,87.766L1008.929-78.75
				L781.025,37.227z"/>
		</g>
		<g>
			<path d="M696.987,458.605l259.829-92.558L709.976,689.991L696.987,458.605z M700.294,460.85l12.371,220.362l235.081-308.506
				L700.294,460.85z"/>
		</g>
		<g>
			<path d="M620.285-53.223l159.9,89.676L672.499,199.187L620.285-53.223z M624.812-47.001l49.243,238.059L775.621,37.575
				L624.812-47.001z"/>
		</g>
		<g>
			<path d="M805.899,280.064l150.137,89.687l-261.098,93.003L805.899,280.064z M806.967,284.439L702.341,456.7l246.181-87.701
				L806.967,284.439z"/>
		</g>
		<g>
			<path d="M671.379,191.968l137.22,89.784L697.52,464.638L671.379,191.968z M675.171,198.281l24.594,256.53l104.5-172.061
				L675.171,198.281z"/>
		</g>
		<g>
			<path d="M779.432,37.417l-0.514,2.008l-159.206-89.29 M625.384-50.367l151.501,84.965"/>
		</g>
		<g>
			<path d="M418.251,421.791l-1.543-2.824l284.64,39.503L559.027,679.037L418.251,421.791z M422.556,423.038L559.248,672.82
				l136.685-211.844L422.556,423.038z"/>
		</g>
		<g>
			<path d="M671.052,195.595L778.975,32.506l29.43,252.95L671.052,195.595z M675.502,194.661l128.963,84.38L776.836,41.518
				L675.502,194.661z"/>
		</g>
		<g>
			<path d="M511.496,860.41l263.683,79.516l-159.511,112.655L511.496,860.41z M518.007,865.751l98.739,182.141l151.198-106.773
				L518.007,865.751z"/>
		</g>
		<g>
			<path d="M623.328-54.155l51.892,250.838l-223.76,6.602L623.328-54.155z M621.766-46.069l-164.21,245.944l213.773-6.309
				L621.766-46.069z"/>
		</g>
		<g>
			<path d="M332.479,860.181l-0.405-1.973l184.821,3.291l-110.245,359.71L332.479,860.181z M335.985,861.498l71.268,346.893
				l105.356-343.744L335.985,861.498z"/>
		</g>
		<g>
			<path d="M436.969-45.216l188.647-6.619L453.234,206.362L436.969-45.216z M440.343-42.107l15.442,238.903L619.483-48.391
				L440.343-42.107z"/>
		</g>
		<g>
			<path d="M452.944,201.322l0.21-1.322l224.485-6.616L417.364,425.167L452.944,201.322z M455.87,203.154l-33.969,213.684
				l247.017-219.97L455.87,203.154z"/>
		</g>
		<g>
			<path d="M415.97,422.126l258.586-230.287l25.852,269.76L415.97,422.126z M423.293,419.885l273.567,37.967l-24.864-259.445
				L423.293,419.885z"/>
		</g>
		<g>
			<path d="M240.174-18.853l216.897,220.759L266.07,317.229L240.174-18.853z M243.998-10.385l24.829,322.194l183.12-110.555
				L243.998-10.385z"/>
		</g>
		<g>
			<path d="M238.731-15.752l201.398-29.757l16.235,251.257L238.731-15.752z M245.445-13.48l207.208,210.881L437.179-41.812
				L245.445-13.48z"/>
		</g>
		<g>
			<path d="M513.243,862.602l1.103-3.614l103.9,191.681l-214.304,168.543L513.243,862.602z M515.155,867.168l-105.188,343.229
				l204.192-160.598L515.155,867.168z"/>
		</g>
		<g>
			<path d="M355.947,661.177l205.173,13.252l-45.591,192.248L355.947,661.177z M362.841,664.854l151.123,194.622l43.187-182.06
				L362.841,664.854z"/>
		</g>
		<g>
			<path d="M357.389,664.506l61.683-247.836l142.871,261.054L357.389,664.506z M361.402,661.527l194.936,12.596l-136.15-248.791
				L361.402,661.527z"/>
		</g>
		<g>
			<path d="M264.509,314.415l192.105-115.987l-35.828,225.349L264.509,314.415z M270.39,314.618L418.474,418.23l33.931-213.502
				L270.39,314.618z"/>
		</g>
		<g>
			<path d="M88.664,874.453l249.779-16.516L18.043,1154.682l-3.994,3.699L88.664,874.453z M91.143,877.524l-71.233,271.078
				l309.704-286.845L91.143,877.524z"/>
		</g>
		<g>
			<path d="M169.132,504.288l252.745-85.746l-61.564,247.354L169.132,504.288z M175.548,505.512L358.48,660.137l58.903-236.672
				L175.548,505.512z"/>
		</g>
		<g>
			<path d="M266.043,313.784l0.813-1.636L423.155,421.51l-253.982,86.171L266.043,313.784z M268.054,316.889l-92.556,185.239
				l240.618-81.634L268.054,316.889z"/>
		</g>
		<g>
			<path d="M135.474,658.112l35.901-156.116l192.569,162.76L135.474,658.112z M139.439,654.999l215.408,6.268L173.292,507.81
				L139.439,654.999z"/>
		</g>
		<g>
			<path d="M133.562,654.838l227.624,6.616l-26.009,201.89L133.562,654.838z M141.36,658.293l191.517,198.068L357.6,664.578
				L141.36,658.293z"/>
		</g>
		<g>
			<path d="M13.457,1154.569L335.015,856.76l73.483,357.711l0.475,2.283L13.457,1154.569z M20.507,1152.411l384.428,60.443
				l-71.894-349.909L20.507,1152.411z"/>
		</g>
		<g>
			<path d="M136.553,653.31l201.04,207.925L87.896,877.734L136.553,653.31z M138.38,659.81l-46.48,214.425l238.567-15.764
				L138.38,659.81z"/>
		</g>
		<g>
			<path d="M-25.736-71.43l272.309,56.089L-32.971,144.902l-2.484,1.426L-25.736-71.43z M-22.737-67.521l-9.305,208.184
				L237.6-13.896L-22.737-67.521z"/>
		</g>
		<g>
			<polygon points="-98.209,685.69 134.033,655.383 -98.209,422.088 -98.209,417.555 140.89,657.737 -98.209,688.941 			"/>
		</g>
		<g>
			<path d="M-36.987,143.502L243.475-17.265l25.792,334.659L-36.987,143.502z M-30.514,143.489l296.159,168.156L240.696-11.971
				L-30.514,143.489z"/>
		</g>
		<g>
			<polygon points="-98.209,697.529 88.95,872.896 135.423,658.452 -98.209,688.937 -98.209,685.686 139.488,654.664 
				90.858,879.073 -98.209,701.919 			"/>
		</g>
		<g>
			<polygon points="-98.209,412.462 171.549,502.934 264.449,316.957 -98.209,410.801 -98.209,407.467 270.443,312.074 
				173.131,506.868 -98.209,415.857 			"/>
		</g>
		<g>
			<polygon points="-98.209,407.467 263.202,313.95 -32.753,145.908 -98.209,408.162 -98.209,396.084 -34.736,141.091 
				271.694,315.085 -98.209,410.796 			"/>
		</g>
		<g>
			<polygon points="-98.209,417.561 136.567,653.395 170.464,505.969 -98.209,415.864 -98.209,412.46 172.832,503.367 
				174.207,503.827 138.356,659.729 -98.209,422.085 			"/>
		</g>
		<g>
			<polygon points="-98.209,1077.733 16.008,1150.959 87.819,877.683 -98.209,885.256 -98.209,882.035 89.843,874.377 
				91.988,874.279 17.949,1156.031 -98.209,1081.557 			"/>
		</g>
		<g>
			<polygon points="-98.209,882.027 86.006,874.53 -98.209,701.915 -98.209,697.537 93.792,877.439 -98.209,885.256 			"/>
		</g>
	</g>
	<g style="opacity:0.3;">
		<path d="M1180.95,294.351c0-8.995,7.289-16.295,16.295-16.295c8.993,0,16.288,7.3,16.288,16.295
			c0,8.997-7.295,16.297-16.288,16.297C1188.239,310.648,1180.95,303.349,1180.95,294.351z"/>
		<ellipse cx="1328.324" cy="102.526" rx="16.294" ry="16.297"/>
		<path d="M1471.884,604.466c0-8.997,7.291-16.297,16.297-16.297c8.997,0,16.288,7.3,16.288,16.297
			c0,8.993-7.291,16.297-16.288,16.297C1479.175,620.763,1471.884,613.459,1471.884,604.466z"/>
		<ellipse cx="1312.033" cy="617.251" rx="16.293" ry="16.297"/>
		<path d="M1072.252,626.847c0-8.993,7.289-16.297,16.297-16.297c8.995,0,16.286,7.304,16.286,16.297
			c0,8.997-7.291,16.297-16.286,16.297C1079.541,643.144,1072.252,635.844,1072.252,626.847z"/>
		<path d="M944.371,1026.474c0-8.995,7.291-16.295,16.297-16.295c8.997,0,16.289,7.3,16.289,16.295
			c0,8.997-7.291,16.297-16.289,16.297C951.662,1042.771,944.371,1035.471,944.371,1026.474z"/>
		<ellipse cx="775.235" cy="933.766" rx="16.295" ry="16.297"/>
		<path d="M698.199,681.196c0-8.997,7.289-16.297,16.295-16.297c8.997,0,16.289,7.3,16.289,16.297
			c0,8.997-7.291,16.297-16.289,16.297C705.488,697.493,698.199,690.193,698.199,681.196z"/>
		<ellipse cx="618.577" cy="1042.771" rx="16.294" ry="16.297"/>
		<path d="M499.98,857.036c0-8.997,7.287-16.297,16.289-16.297c9.006,0,16.293,7.3,16.293,16.297s-7.287,16.297-16.293,16.297
			C507.267,873.333,499.98,866.033,499.98,857.036z"/>
		<ellipse cx="407.577" cy="1205.514" rx="16.29" ry="16.297"/>
		<ellipse cx="334.044" cy="857.036" rx="16.29" ry="16.297"/>
		<ellipse cx="14.334" cy="1144.765" rx="16.29" ry="16.294"/>
		<ellipse cx="87.867" cy="869.821" rx="16.288" ry="16.297"/>
		<ellipse cx="561.034" cy="671.604" rx="16.29" ry="16.297"/>
		<ellipse cx="359.615" cy="658.814" rx="16.287" ry="16.295"/>
		<path d="M404.074,419.036c0-8.997,7.285-16.297,16.286-16.297c9.006,0,16.293,7.3,16.293,16.297
			c0,8.995-7.287,16.297-16.293,16.297C411.359,435.333,404.074,428.031,404.074,419.036z"/>
		<ellipse cx="703.299" cy="457.4" rx="16.29" ry="16.295"/>
		<path d="M659.833,195.241c0-8.997,7.283-16.295,16.289-16.295c9.006,0,16.286,7.298,16.286,16.295
			c0,8.995-7.28,16.297-16.286,16.297C667.116,211.538,659.833,204.236,659.833,195.241z"/>
		<path d="M765.337,40.497c0-8.995,7.285-16.297,16.291-16.297c8.997,0,16.289,7.302,16.289,16.297
			c0,8.997-7.291,16.297-16.289,16.297C772.622,56.794,765.337,49.495,765.337,40.497z"/>
		<ellipse cx="241.325" cy="-12.568" rx="16.29" ry="16.296"/>
		<ellipse cx="266.905" cy="313.534" rx="16.29" ry="16.297"/>
		<ellipse cx="455.531" cy="201.636" rx="16.29" ry="16.297"/>
		<ellipse cx="170.989" cy="502.16" rx="16.287" ry="16.296"/>
		<ellipse cx="135.821" cy="652.377" rx="16.29" ry="16.297"/>
		<path d="M794.11,281.562c0-8.995,7.287-16.297,16.289-16.297c9.006,0,16.293,7.302,16.293,16.297
			c0,8.997-7.287,16.297-16.293,16.297C801.397,297.859,794.11,290.559,794.11,281.562z"/>
		<ellipse cx="912.706" cy="128.104" rx="16.29" ry="16.297"/>
		<path d="M941.173,367.885c0-8.997,7.285-16.297,16.287-16.297c9.008,0,16.293,7.3,16.293,16.297
			c0,8.995-7.285,16.295-16.293,16.295C948.458,384.18,941.173,376.88,941.173,367.885z"/>
		<ellipse cx="1034.194" cy="812.278" rx="16.294" ry="16.297"/>
		<ellipse cx="1229.218" cy="972.131" rx="16.294" ry="16.296"/>
		<ellipse cx="1443.417" cy="869.821" rx="16.293" ry="16.297"/>
	</g>
</g>
<g>
	<g style="opacity:0.3;">
		<g>
			<path d="M275.803,2334.048L58.921,2228.621l0.756-1.484l131.968-258.789L275.803,2334.048z M63.246,2227.146l207.965,101.086
				l-80.698-350.653L63.246,2227.146z"/>
		</g>
		<g>
		</g>
		<g>
			<polyline points="18.783,1963.872 -16.601,1685.573 -16.88,1683.412 			"/>
			<line x1="-19.47" y1="1688.138" x2="14.611" y2="1956.233"/>
		</g>
		<g>
			<line x1="63.205" y1="2230.993" x2="17.881" y2="1957.47"/>
			<line x1="15.522" y1="1962.648" x2="58.965" y2="2224.773"/>
		</g>
		<g>
			<line x1="-18.299" y1="1688.425" x2="178.331" y2="1452.211"/>
			<line x1="172.117" y1="1454.679" x2="-18.044" y2="1683.124"/>
		</g>
		<g>
			<path d="M194.409,1974.826l-179.115-13.25l-0.166-1.313l-35.658-280.424L194.409,1974.826z M18.104,1958.546l169.64,12.554
				l-203.564-279.388L18.104,1958.546z"/>
		</g>
		<g>
			<path d="M60.315,2232.905l-45.517-274.614l178.794,13.237L60.315,2232.905z M18.596,1961.807l43.27,261.054l126.69-248.464
				L18.596,1961.807z"/>
		</g>
		<g>
			<path d="M983.251,2219.587L780.05,2036.135l157.319-10.012L983.251,2219.587z M787.857,2038.868l189.956,171.494l-42.903-180.848
				L787.857,2038.868z"/>
		</g>
		<g>
			<path d="M540.802,1724.454l45.74-249.393l104.556,159.611L540.802,1724.454z M588.23,1483.458l-43.034,234.629l141.39-84.464
				L588.23,1483.458z"/>
		</g>
		<g>
			<path d="M191.568,1976.35l-212.651-291.851l328.644-39.348l-0.857,2.447L191.568,1976.35z M-15.271,1687.054l205.852,282.526
				l112.284-320.619L-15.271,1687.054z"/>
		</g>
		<g>
			<path d="M469.704,2173.762l-283.978-202.65l228.483,9.967l0.321,1.108L469.704,2173.762z M196.429,1974.811l267.687,191.021
				l-52.308-181.625L196.429,1974.811z"/>
		</g>
		<g>
			<path d="M977.21,2216.648l159.758-205.731l26.077,202.412L977.21,2216.648z M1134.796,2018.909l-150.94,194.389l175.588-3.132
				L1134.796,2018.909z"/>
		</g>
		<g>
			<path d="M-21.981,1687.856l197.347-237.073l132.632,197.561L-21.981,1687.856z M175.084,1456.101l-189.445,227.596
				l316.784-37.935L175.084,1456.101z"/>
		</g>
		<g>
			<path d="M272.55,2334.029l-83.966-364.814l280.946,200.485L272.55,2334.029z M193.569,1976.71l80.904,351.534l189.818-158.351
				L193.569,1976.71z"/>
		</g>
		<g>
			<path d="M415.232,1984.354l-226.372-9.868l116.426-332.421L415.232,1984.354z M193.293,1971.439l217.506,9.498l-105.651-328.89
				L193.293,1971.439z"/>
		</g>
		<g>
			<path d="M544.229,1723.342l-242.932-75.826l288.283-171.433L544.229,1723.342z M309.133,1646.587l232.634,72.611l43.421-236.767
				L309.133,1646.587z"/>
		</g>
		<g>
			<path d="M301.551,1651.101l181.171-385.232l106.754,214.013L301.551,1651.101z M482.803,1273.164l-173.928,369.841
				l276.421-164.371L482.803,1273.164z"/>
		</g>
		<g>
			<path d="M305.46,1650.269l-132.498-197.338l1.46-0.881l312.003-186.602L305.46,1650.269z M177.497,1453.955l127.473,189.877
				l174.115-370.25L177.497,1453.955z"/>
		</g>
		<g>
			<path d="M538.915,2388.257l-74.714-221.536l263.146,125.65L538.915,2388.257z M469.629,2172.882l71.109,210.843l179.346-91.263
				L469.629,2172.882z"/>
		</g>
		<g>
			<path d="M542.226,2388.132l-272.307-56.091l197.748-164.959L542.226,2388.132z M277.097,2330.237l260.33,53.621l-71.274-211.337
				L277.097,2330.237z"/>
		</g>
		<g>
			<path d="M689.909,1638.687l-104.713-159.859l134.166-93.253L689.909,1638.687z M589.576,1479.691l98.198,149.912l27.612-237.363
				L589.576,1479.691z"/>
		</g>
		<g>
			<path d="M412.69,1986.851l-109.935-342.248l242.514,75.688L412.69,1986.851z M307.667,1649.509l105.661,328.926l127.41-256.186
				L307.667,1649.509z"/>
		</g>
		<g>
			<path d="M721.533,2294.757l61.502-260.245l200.685,181.188L721.533,2294.757z M784.881,2040.485L725.9,2290.076l251.441-75.824
				L784.881,2040.485z"/>
		</g>
		<g>
			<path d="M787.621,2039.672l-377.024-55.752l132.121-265.654L787.621,2039.672z M415.423,1981.375l364.873,53.946
				l-237.011-311.046L415.423,1981.375z"/>
		</g>
		<g>
			<path d="M724.803,2294.717l-1.757-0.845l-260.078-124.171l323.254-134.89L724.803,2294.717z M470.847,2169.894l251.777,120.222
				l59.066-249.93L470.847,2169.894z"/>
		</g>
		<g>
			<path d="M465.886,2171.967l-55.087-191.284l2.44,0.361l376.686,55.711L465.886,2171.967z M415.232,1984.6l52.704,183.028
				l310.06-129.381L415.232,1984.6z"/>
		</g>
		<g>
			<path d="M782.273,2039.229l13.05-232.572l143.645,222.603L782.273,2039.229z M797.942,1816.59l-12.301,219.191l147.673-9.407
				L797.942,1816.59z"/>
		</g>
		<g>
			<path d="M719.799,1391.938l-239.825-122.037 M485.54,1269.131l229.417,116.743"/>
		</g>
		<g>
			<path d="M586.792,1481.627l-107.616-215.74l241.321,122.804L586.792,1481.627z M486.349,1273.146l101.636,203.744l126.268-87.766
				L486.349,1273.146z"/>
		</g>
		<g>
			<path d="M785.302,2041.888l-246.841-323.944l259.829,92.558L785.302,2041.888z M547.532,1724.603l235.081,308.506l12.371-220.362
				L547.532,1724.603z"/>
		</g>
		<g>
			<path d="M822.779,1551.084l-107.686-162.735l159.9-89.676L822.779,1551.084z M719.657,1389.472l101.566,153.483l49.243-238.059
				L719.657,1389.472z"/>
		</g>
		<g>
			<path d="M800.34,1814.65l-261.098-93.003l150.136-89.687L800.34,1814.65z M546.756,1720.896l246.181,87.701l-104.626-172.26
				L546.756,1720.896z"/>
		</g>
		<g>
			<path d="M797.758,1816.535l-111.079-182.885l137.22-89.785L797.758,1816.535z M691.012,1634.647l104.5,172.061l24.594-256.53
				L691.012,1634.647z"/>
		</g>
		<g>
			<path d="M873.736,1304.678 M871.723,1298.89"/>
		</g>
		<g>
			<path d="M875.565,1302.032l-159.206,89.29l-0.514-2.008 M718.393,1386.495l151.501-84.965"/>
		</g>
		<g>
			<path d="M936.251,2030.934L793.93,1810.366l284.64-39.503l-1.543,2.824L936.251,2030.934z M799.345,1812.872l136.685,211.844
				l136.691-249.782L799.345,1812.872z"/>
		</g>
		<g>
			<path d="M686.872,1637.352l29.43-252.95l107.923,163.089L686.872,1637.352z M718.441,1393.415l-27.629,237.523l128.963-84.38
				L718.441,1393.415z"/>
		</g>
		<g>
			<path d="M879.61,2404.478l-159.511-112.655l263.683-79.516L879.61,2404.478z M727.335,2293.015l151.198,106.773l98.739-182.141
				L727.335,2293.015z"/>
		</g>
		<g>
			<path d="M1043.818,1555.182l-223.76-6.602l51.892-250.839L1043.818,1555.182z M823.948,1545.463l213.773,6.309l-164.21-245.944
				L823.948,1545.463z"/>
		</g>
		<g>
			<path d="M1088.628,2573.105l-110.245-359.71l184.821-3.291l-0.405,1.974L1088.628,2573.105z M982.67,2216.544l105.356,343.744
				l71.268-346.893L982.67,2216.544z"/>
		</g>
		<g>
			<path d="M1042.043,1558.259l-172.381-258.197l188.647,6.619L1042.043,1558.259z M875.795,1303.506l163.698,245.186
				l15.442-238.903L875.795,1303.506z"/>
		</g>
		<g>
			<path d="M1059.247,1309.943l-188.46-6.611 M874.678,1300.238l179.323,6.293"/>
		</g>
		<g>
			<path d="M1077.914,1777.063L817.639,1545.28l224.485,6.616l0.21,1.322L1077.914,1777.063z M826.36,1548.765l247.017,219.97
				l-33.969-213.684L826.36,1548.765z"/>
		</g>
		<g>
			<path d="M794.87,1813.496l25.853-269.76l258.586,230.287L794.87,1813.496z M823.281,1550.303l-24.864,259.445l273.567-37.967
				L823.281,1550.303z"/>
		</g>
		<g>
			<path d="M1229.208,1669.125l-191.001-115.323l216.897-220.759L1229.208,1669.125z M1043.332,1553.151l183.12,110.555
				l24.829-322.194L1043.332,1553.151z"/>
		</g>
		<g>
			<path d="M1038.914,1557.645l16.235-251.257l201.398,29.757L1038.914,1557.645z M1058.099,1310.084l-15.474,239.213
				l207.208-210.881L1058.099,1310.084z"/>
		</g>
		<g>
			<path d="M1091.336,2571.108l-214.304-168.543l103.9-191.681l1.103,3.614L1091.336,2571.108z M881.119,2401.696l204.192,160.598
				l-105.188-343.229L881.119,2401.696z"/>
		</g>
		<g>
			<path d="M1057.294,1313.162 M1055.949,1303.314"/>
		</g>
		<g>
			<path d="M979.75,2218.573l-45.591-192.248l205.173-13.252L979.75,2218.573z M938.126,2029.313l43.187,182.06l151.123-194.622
				L938.126,2029.313z"/>
		</g>
		<g>
			<path d="M933.335,2029.62l142.871-261.054l61.682,247.836L933.335,2029.62z M1075.09,1777.229l-136.15,248.791l194.936-12.596
				L1075.09,1777.229z"/>
		</g>
		<g>
			<path d="M1074.491,1775.673l-35.828-225.349l192.105,115.987L1074.491,1775.673z M1042.873,1556.625l33.931,213.502
				l148.083-103.611L1042.873,1556.625z"/>
		</g>
		<g>
			<path d="M1254.374,1339.082l-201.901-29.826 M1060.779,1307.219l191.237,28.256"/>
		</g>
		<g>
			<path d="M1054.313,1311.885 M1058.931,1304.591"/>
		</g>
		<g>
			<path d="M1481.228,2510.277l-3.994-3.699l-320.399-296.744l249.778,16.516L1481.228,2510.277z M1165.663,2213.654
				l309.704,286.845l-71.233-271.078L1165.663,2213.654z"/>
		</g>
		<g>
			<path d="M1134.964,2017.792l-61.564-247.354l252.745,85.746L1134.964,2017.792z M1077.895,1775.361l58.903,236.672
				l182.932-154.624L1077.895,1775.361z"/>
		</g>
		<g>
			<path d="M1326.105,1859.578l-253.982-86.17l156.299-109.362l0.813,1.636L1326.105,1859.578z M1079.162,1772.391l240.618,81.634
				l-92.556-185.239L1079.162,1772.391z"/>
		</g>
		<g>
			<path d="M1131.333,2016.653l192.569-162.76l35.901,156.116L1131.333,2016.653z M1321.986,1859.707l-181.556,153.458
				l215.408-6.269L1321.986,1859.707z"/>
		</g>
		<g>
			<path d="M1160.101,2215.241l-26.01-201.89l227.624-6.616L1160.101,2215.241z M1137.678,2016.475l24.723,191.783l191.517-198.069
				L1137.678,2016.475z"/>
		</g>
		<g>
			<path d="M1086.304,2568.651l0.475-2.283l73.483-357.711l321.558,297.809L1086.304,2568.651z M1162.236,2214.842l-71.894,349.909
				l384.428-60.443L1162.236,2214.842z"/>
		</g>
		<g>
			<path d="M1407.382,2229.631l-249.698-16.499l201.04-207.925L1407.382,2229.631z M1164.81,2210.367l238.567,15.764l-46.48-214.425
				L1164.81,2210.367z"/>
		</g>
		<g>
			<path d="M1530.733,1498.225l-2.484-1.426l-279.544-160.244l272.309-56.089L1530.733,1498.225z M1257.678,1338l269.642,154.559
				l-9.305-208.184L1257.678,1338z"/>
		</g>
		<g>
			<path d="M1523.397,1283.27l-272.382,56.103 M1255.368,1335.183l260.263-53.607"/>
		</g>
		<g>
			<polygon points="1593.487,2037.587 1361.245,2007.28 1593.487,1773.984 1593.487,1769.451 1354.387,2009.633 1593.487,2040.837 
							"/>
		</g>
		<g>
			<path d="M1226.011,1669.291l25.792-334.659l280.462,160.767L1226.011,1669.291z M1254.582,1339.926l-24.949,323.616
				l296.159-168.156L1254.582,1339.926z"/>
		</g>
		<g>
			<polygon points="1593.487,2049.425 1406.328,2224.792 1359.855,2010.349 1593.487,2040.833 1593.487,2037.582 1355.79,2006.561 
				1404.42,2230.969 1593.487,2053.816 			"/>
		</g>
		<g>
			<polygon points="1593.487,1764.359 1323.729,1854.831 1230.829,1668.854 1593.487,1762.697 1593.487,1759.364 1224.834,1663.971 
				1322.147,1858.765 1593.487,1767.754 			"/>
		</g>
		<g>
			<polygon points="1593.487,1759.364 1232.076,1665.847 1528.03,1497.805 1593.487,1760.059 1593.487,1747.981 1530.013,1492.988 
				1223.583,1666.982 1593.487,1762.693 			"/>
		</g>
		<g>
			<polygon points="1593.487,1769.458 1358.711,2005.292 1324.814,1857.865 1593.487,1767.76 1593.487,1764.357 1322.446,1855.263 
				1321.071,1855.724 1356.922,2011.626 1593.487,1773.982 			"/>
		</g>
		<g>
			<polygon points="1593.487,2429.63 1479.27,2502.856 1407.459,2229.58 1593.487,2237.153 1593.487,2233.932 1405.434,2226.273 
				1403.29,2226.176 1477.329,2507.928 1593.487,2433.454 			"/>
		</g>
		<g>
			<polygon points="1593.487,2233.923 1409.272,2226.426 1593.487,2053.811 1593.487,2049.434 1401.485,2229.336 1593.487,2237.153 
							"/>
		</g>
	</g>
	<g style="opacity:0.3;">
		<path d="M314.328,1646.248c0-8.995-7.289-16.295-16.295-16.295c-8.993,0-16.288,7.3-16.288,16.295
			c0,8.998,7.295,16.297,16.288,16.297C307.039,1662.545,314.328,1655.245,314.328,1646.248z"/>
		<ellipse cx="166.954" cy="1454.422" rx="16.294" ry="16.297"/>
		<path d="M493.36,1272.193c0-8.996-7.291-16.296-16.297-16.296c-8.997,0-16.289,7.3-16.289,16.296
			c0,8.995,7.291,16.295,16.289,16.295C486.069,1288.488,493.36,1281.188,493.36,1272.193z"/>
		<path d="M23.394,1956.362c0-8.997-7.291-16.297-16.297-16.297c-8.997,0-16.289,7.3-16.289,16.297
			c0,8.993,7.291,16.297,16.289,16.297C16.103,1972.659,23.394,1965.355,23.394,1956.362z"/>
		<ellipse cx="183.245" cy="1969.147" rx="16.293" ry="16.297"/>
		<path d="M423.026,1978.743c0-8.993-7.289-16.297-16.297-16.297c-8.995,0-16.286,7.304-16.286,16.297
			c0,8.997,7.291,16.297,16.286,16.297C415.737,1995.04,423.026,1987.741,423.026,1978.743z"/>
		<path d="M550.907,2378.371c0-8.995-7.291-16.295-16.297-16.295c-8.997,0-16.289,7.3-16.289,16.295
			c0,8.997,7.291,16.297,16.289,16.297C543.615,2394.668,550.907,2387.368,550.907,2378.371z"/>
		<ellipse cx="720.042" cy="2285.662" rx="16.295" ry="16.297"/>
		<path d="M797.079,2033.092c0-8.997-7.289-16.297-16.295-16.297c-8.997,0-16.289,7.3-16.289,16.297
			c0,8.997,7.291,16.297,16.289,16.297C789.79,2049.389,797.079,2042.089,797.079,2033.092z"/>
		<ellipse cx="876.701" cy="2394.668" rx="16.294" ry="16.297"/>
		<path d="M995.298,2208.932c0-8.997-7.287-16.297-16.289-16.297c-9.006,0-16.293,7.3-16.293,16.297s7.287,16.297,16.293,16.297
			C988.011,2225.229,995.298,2217.93,995.298,2208.932z"/>
		<ellipse cx="1161.234" cy="2208.932" rx="16.29" ry="16.297"/>
		<ellipse cx="1480.944" cy="2496.662" rx="16.29" ry="16.294"/>
		<ellipse cx="1407.411" cy="2221.718" rx="16.288" ry="16.297"/>
		<ellipse cx="934.244" cy="2023.501" rx="16.29" ry="16.297"/>
		<ellipse cx="1135.663" cy="2010.71" rx="16.287" ry="16.295"/>
		<path d="M1091.204,1770.933c0-8.997-7.285-16.297-16.286-16.297c-9.006,0-16.293,7.3-16.293,16.297
			c0,8.995,7.287,16.297,16.293,16.297C1083.919,1787.23,1091.204,1779.928,1091.204,1770.933z"/>
		<ellipse cx="791.979" cy="1809.297" rx="16.29" ry="16.295"/>
		<path d="M835.445,1547.137c0-8.997-7.283-16.295-16.289-16.295c-9.006,0-16.286,7.298-16.286,16.295
			c0,8.995,7.28,16.297,16.286,16.297C828.162,1563.434,835.445,1556.132,835.445,1547.137z"/>
		<path d="M729.941,1392.394c0-8.995-7.285-16.297-16.291-16.297c-8.997,0-16.289,7.302-16.289,16.297
			c0,8.997,7.291,16.297,16.289,16.297C722.656,1408.691,729.941,1401.391,729.941,1392.394z"/>
		<path d="M886.596,1304.161c0-8.997-7.283-16.297-16.289-16.297s-16.289,7.3-16.289,16.297c0,8.995,7.283,16.297,16.289,16.297
			S886.596,1313.156,886.596,1304.161z"/>
		<path d="M1072.027,1310.555c0-8.994-7.287-16.296-16.289-16.296c-9.006,0-16.293,7.302-16.293,16.296
			c0,8.997,7.287,16.297,16.293,16.297C1064.74,1326.852,1072.027,1319.553,1072.027,1310.555z"/>
		<ellipse cx="1253.953" cy="1339.329" rx="16.29" ry="16.296"/>
		<ellipse cx="1228.373" cy="1665.431" rx="16.29" ry="16.297"/>
		<ellipse cx="1039.747" cy="1553.533" rx="16.29" ry="16.297"/>
		<ellipse cx="1324.289" cy="1854.057" rx="16.287" ry="16.296"/>
		<ellipse cx="1359.457" cy="2004.273" rx="16.29" ry="16.297"/>
		<path d="M701.168,1633.458c0-8.995-7.287-16.297-16.289-16.297c-9.006,0-16.293,7.302-16.293,16.297
			c0,8.997,7.287,16.297,16.293,16.297C693.881,1649.755,701.168,1642.456,701.168,1633.458z"/>
		<ellipse cx="582.572" cy="1480.001" rx="16.29" ry="16.297"/>
		<path d="M554.104,1719.782c0-8.997-7.285-16.297-16.287-16.297c-9.008,0-16.293,7.3-16.293,16.297
			c0,8.995,7.285,16.295,16.293,16.295C546.82,1736.077,554.104,1728.777,554.104,1719.782z"/>
		<ellipse cx="461.084" cy="2164.175" rx="16.294" ry="16.297"/>
		<ellipse cx="266.06" cy="2324.028" rx="16.294" ry="16.296"/>
		<ellipse cx="51.861" cy="2221.718" rx="16.293" ry="16.297"/>
	</g>
</g>
</svg>
